<svg width="120" height="30" viewBox="0 0 120 30" fill="none" xmlns="http://www.w3.org/2000/svg">
<g clip-path="url(#clip0_2_5)">
<path d="M89.3637 0.995992C88.3788 1.04158 87.389 1.03611 86.403 0.997961C85.8763 0.977614 85.6976 1.11146 85.7015 1.67832C85.7287 5.30666 85.7168 8.93551 85.7114 12.5641C85.7109 12.7599 85.7899 12.9874 85.5835 13.1803C85.1096 12.7262 84.7136 12.2299 84.2031 11.8532C80.8397 9.36909 75.6875 10.2121 73.1704 13.6856C71.2369 16.3532 70.875 19.3277 71.6753 22.4528C72.8232 26.9338 76.8191 29.5234 81.3445 28.7383C83.2042 28.4161 84.7288 27.4806 85.8899 25.8918C85.8899 26.5838 85.9037 27.2769 85.8844 27.969C85.8746 28.3056 85.9901 28.4171 86.3263 28.4116C87.4119 28.3943 88.4982 28.3908 89.5842 28.4126C89.9628 28.4206 90.0557 28.2719 90.0423 27.9253C90.0211 27.3508 90.0369 26.7752 90.0369 26.2002C90.0369 18.0313 90.0406 9.86221 90.0482 1.69301C90.0495 1.15514 89.9189 0.970177 89.3637 0.995992ZM84.4001 23.5204C83.0079 25.024 81.3018 25.5401 79.3507 24.9928C77.4174 24.4504 76.3717 23.0271 75.9097 21.1215C75.795 20.6187 75.7439 20.1033 75.7577 19.5877C75.783 17.7301 76.361 16.107 77.9082 14.9916C79.7166 13.6868 82.1392 13.8489 83.8824 15.3099C86.2495 17.2951 86.4978 21.2568 84.4001 23.5204Z" fill="#FFFDFD"/>
<path d="M109.916 17.7893C109.565 15.5688 108.737 13.5968 106.941 12.1561C105.202 10.7611 103.163 10.3122 100.994 10.4533C98.2417 10.6322 95.9179 11.7159 94.2384 13.9755C92.7257 16.0103 92.2564 18.3317 92.4848 20.8262C92.7524 23.7384 94.037 26.037 96.5754 27.5366C98.8537 28.8826 101.328 29.1379 103.894 28.6863C105.938 28.3268 107.61 27.3185 108.937 25.7148C109.207 25.3886 109.228 25.187 108.859 24.9146C108.128 24.3757 107.418 23.8086 106.729 23.2132C106.447 22.9698 106.314 22.9911 106.082 23.2692C104.624 25.0153 102.721 25.4619 100.581 25.0469C98.6775 24.6781 97.1643 23.1934 96.8641 21.5519C96.7886 21.1394 96.8518 21.0125 97.3 21.0178C99.333 21.0421 101.367 21.0282 103.4 21.0282C105.374 21.0282 107.349 20.9964 109.322 21.0466C109.96 21.063 110.082 20.8453 110.053 20.2782C110.011 19.4485 110.047 18.6156 109.916 17.7893ZM104.96 17.932C103.698 17.9325 102.436 17.9325 101.174 17.932C99.8728 17.932 98.571 17.9182 97.2701 17.9405C96.8643 17.9474 96.7923 17.8418 96.8579 17.4398C97.2142 15.264 99.2342 13.738 101.761 13.7728C103.773 13.8 105.168 14.9348 105.592 16.8895C105.614 16.9856 105.631 17.0829 105.642 17.181C105.723 17.931 105.722 17.9315 104.96 17.932Z" fill="#FFFDFD"/>
<path d="M69.036 16.7749C68.88 13.7296 67.0687 11.5136 64.1332 10.7531C62.6018 10.3561 61.0481 10.3258 59.4985 10.5815C57.6413 10.888 55.9405 11.5835 54.4589 12.7827C54.0985 13.0747 53.9401 13.2888 54.3404 13.6978C54.8612 14.2393 55.3483 14.8125 55.7988 15.4142C56.0915 15.7983 56.3014 15.8207 56.683 15.5064C58.0254 14.4004 59.5657 13.8238 61.3232 13.8932C63.5112 13.9805 64.7904 15.0983 64.9705 17.0749C65.0011 17.406 64.9592 17.5914 64.5526 17.5825C63.1707 17.5528 61.7934 17.6574 60.4229 17.8185C58.4708 18.047 56.6072 18.516 54.9207 19.627C52.341 21.3263 52.6683 25.2301 54.1973 26.8222C56.5457 29.2692 61.3178 29.6078 63.9066 27.4199C64.2929 27.0937 64.6032 26.6946 65.0189 26.1795C65.0189 26.8785 65.0352 27.4243 65.013 27.9687C64.9996 28.3048 65.1152 28.4168 65.4514 28.4113C66.5168 28.394 67.5823 28.3942 68.648 28.4119C69.0005 28.4178 69.1338 28.3197 69.1284 27.9469C69.0731 24.223 69.2261 20.4975 69.036 16.7749ZM64.9019 21.7547C64.7637 23.9568 63.179 25.4252 60.8187 25.538C60.0435 25.5744 59.2793 25.5162 58.5672 25.1792C57.0665 24.4689 56.9086 22.5856 58.2583 21.6099C59.1855 20.9402 60.2617 20.7047 61.3602 20.5684C62.1205 20.4742 62.8911 20.4608 63.287 20.4349C64.9854 20.4291 64.9854 20.4291 64.9019 21.7547Z" fill="#FFFDFD"/>
<path d="M42.9466 20.4787C42.9466 18.4174 42.9412 16.3561 42.9521 14.2947C42.9535 13.9477 42.9165 13.7558 42.4835 13.7583C39.5031 13.7766 36.5227 13.7722 33.5425 13.7623C33.2073 13.7612 33.0952 13.8688 33.1017 14.2049C33.1195 15.1161 33.1283 16.0288 33.0987 16.9395C33.0844 17.3668 33.2339 17.4736 33.6393 17.4672C35.0798 17.4454 36.5209 17.4677 37.962 17.4529C38.3174 17.4489 38.4918 17.5069 38.4868 17.9297C38.4656 19.8324 38.4706 21.735 38.4849 23.6377C38.4873 23.951 38.3763 24.0963 38.0914 24.1925C35.9029 24.9341 33.6625 25.1884 31.3895 24.7661C28.5219 24.2334 26.4258 22.6346 25.1925 19.9551C25.0503 19.6458 24.9392 19.6002 24.641 19.794C23.4819 20.5465 22.3064 21.2743 21.1289 21.9981C20.8693 22.1577 20.8337 22.3 20.9917 22.564C21.4617 23.347 21.9741 24.0991 22.5968 24.7658C25.0148 27.3551 28.0258 28.709 31.5196 29.0178C35.2954 29.3512 38.9492 28.8616 42.4514 27.3516C42.8459 27.1811 42.9595 26.9555 42.9555 26.5436C42.9362 24.5219 42.9466 22.5003 42.9466 20.4787Z" fill="#FFFDFD"/>
<path d="M50.813 1.62249C50.8079 1.52356 50.8083 1.42443 50.814 1.32554C50.8536 0.979515 50.6874 0.885791 50.3653 0.889797C49.2796 0.903659 48.1934 0.921589 47.1089 0.883438C46.6019 0.865571 46.4893 1.0396 46.4908 1.52196C46.5086 5.90238 46.5012 10.2822 46.5012 14.6626C46.5012 19.0033 46.5166 23.3441 46.4845 27.6843C46.48 28.3138 46.6701 28.4458 47.2457 28.418C48.2108 28.3714 49.181 28.3704 50.1458 28.4185C50.703 28.4463 50.8251 28.2596 50.8242 27.7255C50.8081 19.0244 50.8043 10.3233 50.813 1.62249Z" fill="#FFFDFD"/>
<path d="M24.3994 11.7855C24.7476 12.008 24.8343 11.9119 24.9641 11.5793C27.5175 5.02549 35.4615 4.693 39.4342 8.37921C39.7008 8.62655 39.8188 8.58001 40.0291 8.34601C40.6902 7.60983 41.3695 6.89049 42.0444 6.16722C42.977 5.1683 42.9844 5.15984 41.8198 4.38354C39.1978 2.63654 36.2618 2.02034 32.6707 1.97075C32.1558 1.94347 31.1561 2.06988 30.1662 2.24416C29.526 2.35817 28.8943 2.51585 28.2754 2.71609C24.9588 3.78889 22.3896 5.78526 20.7308 8.90594C20.5274 9.28815 20.5704 9.47509 20.954 9.69617C22.1181 10.3655 23.2665 11.062 24.3994 11.7855Z" fill="#FFFDFD"/>
<path d="M119.968 14.7087C119.91 13.6825 119.84 12.6563 119.75 11.6322C119.732 11.419 119.913 11.0893 119.486 11.0268C119.111 10.9718 118.974 11.1612 118.864 11.4869C118.558 12.3991 118.218 13.299 117.845 14.3355C117.471 13.2513 117.131 12.3039 116.82 11.3476C116.711 11.0106 116.481 11.0125 116.216 11.0333C115.91 11.0571 115.985 11.3015 115.969 11.4829C115.926 11.9752 115.893 12.4685 115.858 12.9617C115.814 13.5928 115.771 14.2244 115.732 14.856C115.723 15.0116 115.7 15.1817 115.943 15.1946C116.152 15.206 116.221 15.0909 116.239 14.9125C116.26 14.7154 116.289 14.5199 116.301 14.3231C116.348 13.5092 116.391 12.6945 116.443 11.7408C116.823 12.87 117.156 13.8581 117.487 14.8466C117.538 14.9963 117.565 15.1604 117.768 15.1802C118.004 15.2035 118.066 15.0345 118.127 14.8615C118.181 14.7122 118.239 14.5655 118.293 14.4168C118.596 13.5686 118.899 12.7202 119.202 11.8716C119.33 12.8433 119.37 13.7919 119.415 14.7393C119.426 14.9529 119.404 15.2035 119.735 15.1929C120.114 15.1817 119.979 14.8887 119.968 14.7087Z" fill="#FFFDFD"/>
<path d="M17.2969 8.6936C21.4336 11.1098 25.4818 13.474 29.6159 15.8889C25.5035 18.2917 21.4518 20.6589 17.2969 23.0865C17.2969 22.6215 17.2821 22.2393 17.3008 21.8593C17.3211 21.4593 17.1813 21.268 16.7573 21.2976C16.4026 21.3195 16.047 21.319 15.6924 21.2962C15.1349 21.2646 14.6104 21.0205 14.2261 20.6136C13.8418 20.2068 13.6268 19.6679 13.6248 19.1072C13.6246 18.5466 13.8373 18.0071 14.2196 17.5985C14.6019 17.19 15.1249 16.9432 15.6821 16.9086C16.036 16.8873 16.3925 16.8912 16.747 16.9041C17.0294 16.9151 17.2061 16.8476 17.1923 16.5169C17.1775 16.1609 17.0007 16.0591 16.6591 16.0614C14.8438 16.0748 13.0285 16.0822 11.2135 16.0624C9.65939 16.0457 8.62725 14.5768 9.12882 13.1384C9.43587 12.2565 10.2369 11.6765 11.2146 11.6696C12.9312 11.6577 14.6482 11.6677 16.3648 11.6652C17.2133 11.6637 17.2969 11.5744 17.2969 10.7153V8.6936Z" fill="#FF6F00"/>
<path d="M115.045 11.0293C114.237 11.0283 113.429 11.0283 112.621 11.0293C112.465 11.0298 112.294 11.0114 112.289 11.2529C112.285 11.4863 112.442 11.4804 112.606 11.4978C113.571 11.6009 113.57 11.6029 113.57 12.5899C113.57 12.8273 113.57 13.0647 113.571 13.3021C113.571 13.7968 113.568 14.2916 113.572 14.7863C113.573 14.9787 113.531 15.2082 113.847 15.1914C114.124 15.1765 114.075 14.9673 114.076 14.7997C114.081 14.0477 114.079 13.2956 114.079 12.5436C114.079 11.5899 114.078 11.5883 115.03 11.4971C115.188 11.4817 115.354 11.502 115.362 11.2675C115.37 11.0293 115.207 11.0297 115.045 11.0293Z" fill="#FFFDFD"/>
<path d="M8.33195 20.3501C7.64276 20.3501 6.95306 20.3645 6.26438 20.3466C5.19798 20.3193 4.39007 19.4959 4.38443 18.4581C4.38127 18.2101 4.42695 17.964 4.51885 17.7338C4.61075 17.5036 4.74705 17.2939 4.91992 17.1167C5.09279 16.9396 5.29883 16.7985 5.52617 16.7016C5.75352 16.6047 5.99771 16.5538 6.24469 16.552C7.64231 16.5287 9.04045 16.5282 10.4391 16.5505C10.686 16.5501 10.9306 16.5986 11.1588 16.6932C11.3871 16.7879 11.5944 16.9268 11.7691 17.1021C11.9437 17.2774 12.0822 17.4856 12.1766 17.7147C12.2709 17.9438 12.3193 18.1894 12.319 18.4374C12.3239 19.4992 11.5014 20.3258 10.4 20.3474C9.71083 20.3613 9.02158 20.3501 8.33195 20.3501Z" fill="#FF6F00"/>
<path d="M2.96383 16.0638C2.57035 16.0643 2.17592 16.0828 1.78339 16.0603C1.29664 16.0328 0.83931 15.8174 0.506993 15.4592C0.174675 15.101 -0.00690741 14.6277 0.000201102 14.1382C0.00351938 13.6584 0.189249 13.1979 0.519418 12.851C0.849587 12.504 1.29926 12.2968 1.77649 12.2718C2.56168 12.237 3.35136 12.2376 4.1373 12.2713C4.62482 12.2952 5.08383 12.509 5.41682 12.8674C5.7498 13.2257 5.93052 13.7003 5.92056 14.1904C5.91438 14.6696 5.72786 15.1287 5.39845 15.4754C5.06904 15.8222 4.62116 16.031 4.14477 16.0598C3.75224 16.0839 3.35801 16.0638 2.96383 16.0638Z" fill="#FF6F00"/>
</g>
<defs>
<clipPath id="clip0_2_5">
<rect width="120" height="30" fill="white"/>
</clipPath>
</defs>
</svg>
